<svg   viewBox="0 0 16 17" fill="none" xmlns="http://www.w3.org/2000/svg">
<path fill-rule="evenodd" clip-rule="evenodd" d="M2.82605 7.42744C2.83565 4.60038 5.13522 2.31638 7.96228 2.32596C10.7893 2.33559 13.0733 4.63516 13.0638 7.46222V7.52019C13.0289 9.35787 12.0029 11.0564 10.7449 12.384C10.0255 13.131 9.22205 13.7924 8.35069 14.355C8.11769 14.5565 7.77209 14.5565 7.53909 14.355C6.24009 13.5095 5.10001 12.442 4.17098 11.2014C3.34295 10.1195 2.87283 8.80639 2.82605 7.44483V7.42744Z" stroke="white" stroke-width="1.5" stroke-linecap="round" stroke-linejoin="round"/>
<path d="M7.94462 9.16659C8.85074 9.16659 9.58529 8.43203 9.58529 7.52592C9.58529 6.6198 8.85074 5.88525 7.94462 5.88525C7.03851 5.88525 6.30396 6.6198 6.30396 7.52592C6.30396 8.43203 7.03851 9.16659 7.94462 9.16659Z" stroke="white" stroke-width="1.5" stroke-linecap="round" stroke-linejoin="round"/>
</svg>
