<svg xmlns="http://www.w3.org/2000/svg"  viewBox="0 0 100 100" ><path d="M68.19,14.91l-12.55,9a2.71,2.71,0,0,1-4.28-2.2V16.27a4.38,4.38,0,0,1-1.1.16A36.88,36.88,0,1,0,86.39,60.74,4.41,4.41,0,1,1,95,62.51,45.7,45.7,0,1,1,50.25,7.61a4.36,4.36,0,0,1,1.1.16V3.71a2.71,2.71,0,0,1,4.28-2.2l12.55,9a2.7,2.7,0,0,1,0,4.4ZM86.67,47.49A4.42,4.42,0,0,0,91,51.2a3.68,3.68,0,0,0,.69-.05,4.41,4.41,0,1,0-5-3.66ZM80,24.3a4.4,4.4,0,1,0-3.39,1.6A4.4,4.4,0,0,0,80,24.3Zm4,4.69a4.41,4.41,0,1,0,6,1.64A4.41,4.41,0,0,0,83.92,29ZM49.6,76.57a3.28,3.28,0,0,0,3.28-3.28V70.71C59,69.49,63,65.24,63,59.8S60,51.16,53.17,48.73c-4.83-1.82-6.47-2.93-6.47-4.4,0-1.7,1.59-2.67,4.38-2.67a16.87,16.87,0,0,1,4.88.7,3.67,3.67,0,0,0,1,.15,3.78,3.78,0,0,0,1-7.44,24.43,24.43,0,0,0-4.8-.74V32.59a3.28,3.28,0,1,0-6.56,0v2.2C40.69,36.1,37,40.09,37,45.29c0,6.47,5.64,9.2,10.55,10.85,4.08,1.38,5.67,2.63,5.67,4.46s-1.85,3-4.94,3a18.49,18.49,0,0,1-6-1,3.87,3.87,0,0,0-1.25-.21,3.72,3.72,0,0,0-3.61,2.78l-.07.27A3.8,3.8,0,0,0,39.9,70a26.74,26.74,0,0,0,6.43,1.2V73.3A3.28,3.28,0,0,0,49.6,76.57Z"/></svg>